<?xml version="1.0" encoding="UTF-8" standalone="no"?>
<!-- Created with Inkscape (http://www.inkscape.org/) -->

<svg
   xmlns:dc="http://purl.org/dc/elements/1.1/"
   xmlns:cc="http://creativecommons.org/ns#"
   xmlns:rdf="http://www.w3.org/1999/02/22-rdf-syntax-ns#"
   xmlns:svg="http://www.w3.org/2000/svg"
   xmlns="http://www.w3.org/2000/svg"
   xmlns:sodipodi="http://sodipodi.sourceforge.net/DTD/sodipodi-0.dtd"
   xmlns:inkscape="http://www.inkscape.org/namespaces/inkscape"
   width="104.02684mm"
   height="167.09602mm"
   viewBox="0 0 104.02684 167.09602"
   version="1.1"
   id="svg8"
   inkscape:version="0.92.1 r15371"
   sodipodi:docname="servo.svg"
   inkscape:export-filename="/home/markus/Projekte/00_ACTIVE/psi-theorie/material/servo.svg.png"
   inkscape:export-xdpi="96"
   inkscape:export-ydpi="96">
  <defs
     id="defs2" />
  <sodipodi:namedview
     id="base"
     pagecolor="#ffffff"
     bordercolor="#666666"
     borderopacity="1.0"
     inkscape:pageopacity="0.0"
     inkscape:pageshadow="2"
     inkscape:zoom="1.0829569"
     inkscape:cx="293.22446"
     inkscape:cy="428.97121"
     inkscape:document-units="mm"
     inkscape:current-layer="layer1"
     showgrid="false"
     inkscape:window-width="1920"
     inkscape:window-height="1016"
     inkscape:window-x="0"
     inkscape:window-y="27"
     inkscape:window-maximized="1"
     fit-margin-top="0"
     fit-margin-left="0"
     fit-margin-right="0"
     fit-margin-bottom="0" />
  <metadata
     id="metadata5">
    <rdf:RDF>
      <cc:Work
         rdf:about="">
        <dc:format>image/svg+xml</dc:format>
        <dc:type
           rdf:resource="http://purl.org/dc/dcmitype/StillImage" />
        <dc:title></dc:title>
      </cc:Work>
    </rdf:RDF>
  </metadata>
  <g
     inkscape:label="Ebene 1"
     inkscape:groupmode="layer"
     id="layer1"
     transform="translate(-72.403223,-17.852062)">
    <g
       id="g3691"
       transform="translate(-60.476191,-6.8035714)">
      <path
         style="fill:#000000;fill-opacity:1;stroke-width:0.26458335"
         d="m 160.27823,191.37199 c -2.34791,-0.56902 -2.1769,0.27226 -2.25492,-11.0936 l -0.0693,-10.09051 -0.58568,-0.0833 c -0.32212,-0.0458 -0.96425,-0.43692 -1.42694,-0.86915 l -0.84127,-0.78586 0.13534,-7.28787 c 0.54632,-16.02757 0,-15.72089 -0.12293,-28.9254 0.24096,-20.7558 0.0755,-20.7055 0.0755,-51.115572 V 64.418037 c 1.02226,-14.229581 0.64214,-14.169371 2.8983,-27.701945 0,-9.753344 -0.48468,-9.097374 6.61458,-8.952264 l 3.83646,0.0784 0.0772,2.204661 c 0.0765,2.183456 0.0685,2.214296 -0.82977,3.208556 -0.78812,0.87236 -0.93158,1.24894 -1.09476,2.873861 -0.22657,2.256116 0.0783,3.343976 1.25701,4.484727 1.60925,1.557486 3.96258,2.070136 5.86127,1.276816 2.76626,-1.155816 4.09026,-3.814797 3.21366,-6.453973 -0.2455,-0.739131 -0.80091,-1.790011 -1.23425,-2.335301 -0.74695,-0.93992 -0.78394,-1.10229 -0.71183,-3.125386 l 0.0761,-2.133961 3.83645,-0.14482 c 2.11006,-0.0796 6.18795,-0.0915 9.06198,-0.0263 l 5.22552,0.11855 v 2.346631 c 0,2.033026 -0.0864,2.483556 -0.64673,3.371136 -0.35571,0.56347 -0.84834,1.64087 -1.09475,2.394221 -0.59936,1.832436 -0.23499,3.049936 1.42655,4.766607 1.02594,1.059976 1.45875,1.314346 2.49775,1.467986 0.69122,0.10221 1.81956,0.10144 2.50742,-0.002 2.22271,-0.33332 4.03494,-2.729287 4.03954,-5.340707 0.002,-0.834496 -0.57045,-2.298697 -1.58299,-4.052697 -0.53425,-0.92546 -0.71575,-3.128697 -0.36544,-4.435897 0.15815,-0.59014 0.20207,-0.59531 5.04993,-0.59531 h 4.89039 l 0.89958,0.89958 0.89959,0.89958 v 7.595384 c 2.84252,15.245071 2.8945,15.176741 2.8945,43.758846 0.53256,32.872222 0.17784,33.149452 0.016,63.055782 -0.12301,22.72683 -0.16484,24.48999 -0.59668,25.14897 -0.25542,0.38976 -0.85073,0.80874 -1.32292,0.93106 l -0.85852,0.22241 -0.0693,9.95455 -0.0693,9.95456 -0.66903,0.52626 c -1.01575,0.79899 -2.93746,1.09466 -7.11457,1.09466 -3.21658,0 -3.81961,-0.0638 -3.95572,-0.41851 -0.0883,-0.23018 -0.1606,-1.40419 -0.1606,-2.60891 0,-1.91448 0.0854,-2.31628 0.67813,-3.18969 1.16207,-1.7124 1.52468,-2.92592 1.35771,-4.54371 -0.20451,-1.98149 -1.09554,-3.27447 -2.86378,-4.15562 -1.7166,-0.85543 -2.88198,-0.87253 -4.59602,-0.0674 -1.57636,0.74041 -2.04677,1.23037 -2.78617,2.90191 -0.73263,1.65621 -0.39049,3.5199 0.98401,5.36007 0.55352,0.74106 0.61153,1.09874 0.61153,3.77032 v 2.95158 h -8.96752 c -7.93314,0 -8.98605,-0.0483 -9.12813,-0.41851 -0.0883,-0.23018 -0.1606,-1.48113 -0.1606,-2.77987 0,-2.18739 0.0486,-2.40363 0.65975,-2.935 1.01322,-0.88099 1.79318,-3.23154 1.58194,-4.76745 -0.24222,-1.7611 -1.06538,-2.84824 -2.90931,-3.84226 -2.02997,-1.0943 -3.01153,-1.09242 -5.02092,0.01 -1.26614,0.69444 -1.71276,1.12034 -2.20628,2.10398 -0.5536,1.10335 -0.59891,1.44531 -0.43013,3.24638 0.17085,1.82331 0.27286,2.09493 1.0818,2.88056 l 0.89315,0.86742 v 2.81755 2.81754 l -3.50572,-0.0225 c -1.92816,-0.0124 -4.12673,-0.173 -4.88572,-0.35694 z"
         id="path3703"
         inkscape:connector-curvature="0"
         sodipodi:nodetypes="cccccccccccccccccccscccscsccscccccscccccccccccsscscsccccscscsccccccccccccc" />
      <path
         style="opacity:0.275;fill:#ffffff;fill-opacity:1;stroke:#000000;stroke-width:0.26458338;stroke-opacity:1"
         d="m 145.12031,116.54477 c -2.5864,-1.90206 -2.17182,-4.39587 1.73657,-10.44586 7.03629,-9.526643 11.29192,-19.739347 18.98998,-29.038761 0.4912,-0.54612 0.89307,-1.13734 0.89307,-1.31382 0,-0.17649 -0.52009,-0.86075 -1.15578,-1.5206 -1.47749,-1.533637 -20.06316,-29.944032 -21.24096,-32.469328 -0.48762,-1.045491 -0.88658,-2.240651 -0.88658,-2.655921 0,-1.20314 1.07614,-3.016426 2.11667,-3.566547 1.08883,-0.57567 3.15845,-0.44698 4.89479,0.304341 1.79004,0.77456 31.14444,20.091497 32.42055,21.334658 0.65984,0.6428 1.36971,1.168726 1.57748,1.168726 0.20778,0 0.85853,-0.463656 1.44612,-1.030346 10.00822,-7.040638 18.80017,-12.438085 29.604,-19.536712 3.09101,-2.034376 3.56505,-2.260737 5.2126,-2.489047 1.60122,-0.22189 1.93458,-0.18881 2.86134,0.28399 1.50355,0.767051 2.15187,1.797377 2.15187,3.419787 0,0.73467 -0.14734,1.66879 -0.32743,2.075821 -0.18008,0.40703 -4.44408,6.931303 -9.47556,14.49838 -4.62426,5.157517 -7.97852,14.176191 -12.92818,19.033348 -1.10865,1.05484 -1.03188,1.69449 0.32604,2.71652 5.31238,6.441108 9.97597,14.751381 14.16969,21.328898 l 8.23544,12.916303 -0.004,1.50348 c -0.002,0.82692 -0.0743,1.76718 -0.16071,2.08946 -0.18274,0.6816 -2.40105,2.19216 -3.21927,2.19216 -13.88873,-7.00024 -20.95012,-10.45831 -36.51591,-22.970039 l -1.40262,-1.194481 -1.37551,1.338321 c -2.06607,2.010196 -32.06457,21.893319 -33.81618,22.413489 -2.03983,0.60577 -2.88678,0.52652 -4.12792,-0.38622 z m 7.07006,-4.22993 c 0.70958,-0.50527 0.79124,-0.70934 0.79124,-1.97709 0,-1.25378 -0.0921,-1.49115 -0.81405,-2.09866 -1.38618,-1.16638 -3.30134,-0.86927 -4.078,0.63265 -0.70847,1.37002 -0.52456,2.48661 0.56747,3.44542 0.80042,0.7028 1.12004,0.82431 1.8546,0.70511 0.48813,-0.0792 1.24357,-0.39757 1.67874,-0.70743 z m 69.32084,0 c 0.70957,-0.50527 0.79123,-0.70934 0.79123,-1.97709 0,-1.25378 -0.0921,-1.49115 -0.81405,-2.09866 -1.17984,-0.99277 -2.69426,-0.95059 -3.67795,0.10244 -1.33037,1.42419 -1.2329,2.81171 0.2874,4.09095 1.01199,0.85155 2.10519,0.81386 3.41337,-0.11764 z m -64.04716,-5.14112 c 0.73146,-0.7786 0.98421,-2.63744 0.48657,-3.57845 -0.1895,-0.35835 -0.78977,-0.82101 -1.33392,-1.02811 -0.87634,-0.33354 -1.12088,-0.32633 -2.14059,0.0631 -1.68279,0.64266 -2.22831,2.19067 -1.36221,3.86551 0.52649,1.01814 1.07965,1.30522 2.53357,1.31488 0.94738,0.006 1.34242,-0.13221 1.81658,-0.63693 z m 58.55037,-0.12707 c 0.73207,-0.6541 0.86407,-0.953 0.86407,-1.95659 0,-2.92061 -3.74707,-3.76788 -4.99869,-1.13028 -1.27182,2.68016 1.92151,5.06429 4.13462,3.08687 z m -53.72938,-4.85035 c 1.4631,-1.18386 1.6899,-3.004143 0.52006,-4.173983 -1.05488,-1.05487 -1.92528,-1.21954 -3.13921,-0.5939 -1.81161,0.93369 -2.12929,2.966873 -0.68865,4.407513 0.52425,0.52424 0.95766,0.6911 1.79509,0.6911 0.60719,0 1.28791,-0.14881 1.51271,-0.33073 z m 48.38254,-0.42912 c 1.48514,-1.48514 1.29541,-2.974573 -0.53615,-4.208863 -1.07621,-0.72526 -1.89919,-0.61764 -2.95497,0.38638 -0.86949,0.82686 -1.10221,1.668206 -0.73182,2.645743 0.77949,2.0573 2.78386,2.61583 4.22294,1.17674 z m -42.67086,-5.738983 c 0.47294,-0.49595 0.85989,-1.147496 0.85989,-1.447906 0,-0.929581 -0.70996,-1.978961 -1.69935,-2.511781 -0.91494,-0.49272 -0.97577,-0.49395 -1.82496,-0.0366 -0.95688,0.51532 -1.76737,1.66729 -1.76737,2.512041 0,0.643196 1.19647,2.126056 1.96281,2.432646 0.81514,0.32612 1.50706,0.0603 2.46898,-0.94837 z m 37.05319,0.55108 c 1.1741,-0.98795 1.51741,-2.010096 1.00679,-2.997537 -0.50328,-0.97324 -1.63845,-1.90261 -2.32391,-1.90261 -0.27864,0 -0.85067,0.17792 -1.27117,0.39536 -2.16733,1.12077 -2.11248,3.819007 0.0972,4.780697 1.17955,0.51337 1.60973,0.46573 2.49112,-0.27591 z M 187.45114,80.576776 c 2.76742,-1.755046 3.65081,-4.972847 2.0557,-7.488073 -0.42957,-0.677351 -1.28087,-1.593631 -1.89178,-2.036181 -2.03092,-1.47118 -5.21547,-0.94531 -7.07063,1.16761 -1.08179,1.232091 -1.36907,1.961837 -1.36907,3.477737 0,1.27412 0.89218,3.340621 1.79411,4.155587 0.77944,0.70429 2.94664,1.48041 4.17335,1.49456 0.74944,0.009 1.44505,-0.22376 2.30832,-0.77124 z m -20.3404,-21.016548 c 1.94691,-0.81347 2.33818,-2.795847 0.84629,-4.287737 -1.24263,-1.24263 -2.29917,-1.22896 -3.50095,0.0453 -0.51793,0.54916 -0.89115,1.21951 -0.89115,1.600631 0,1.04003 0.7547,2.225046 1.67078,2.623476 1.0438,0.45397 0.83722,0.45195 1.87503,0.0183 z m 38.44916,-0.63904 c 0.9019,-1.076356 1.00385,-2.016316 0.3359,-3.097087 -0.6677,-1.08036 -1.25607,-1.45119 -2.30251,-1.45119 -1.45543,0 -2.70107,1.23554 -2.71368,2.691671 -0.0214,2.468776 3.12239,3.715866 4.68029,1.856606 z m -43.49892,-4.843827 c 1.67744,-0.85785 1.96958,-2.595317 0.68281,-4.060867 -0.67085,-0.76406 -1.00615,-0.93525 -1.8318,-0.93525 -1.9698,0 -3.35218,1.98169 -2.6183,3.753447 0.52384,1.26467 2.46939,1.90642 3.76729,1.24267 z m 48.75855,-0.60404 c 0.98164,-0.981636 1.10422,-1.641376 0.51623,-2.778427 -0.75854,-1.46686 -2.56909,-2.05771 -3.75662,-1.22594 -0.30445,0.21325 -0.75798,0.81853 -1.00784,1.34507 -0.38023,0.801281 -0.40158,1.084601 -0.13096,1.737921 0.81862,1.976346 2.88868,2.411886 4.37919,0.921376 z m -53.8933,-4.776477 c 1.52289,-0.78752 1.73845,-3.294517 0.37549,-4.366637 -1.11279,-0.87532 -2.59524,-0.73092 -3.68511,0.35895 -1.3675,1.36751 -1.1736,2.851737 0.50637,3.876087 1.0065,0.61371 1.79901,0.65091 2.80325,0.1316 z m 58.70088,-0.14515 c 1.63811,-0.99876 1.76819,-2.566217 0.33214,-4.002267 -1.02436,-1.02436 -2.29511,-1.03703 -3.23227,-0.0322 -1.50536,1.614 -1.49357,2.562781 0.048,3.859917 0.99881,0.84045 1.69059,0.88279 2.85214,0.17459 z m -63.96312,-4.897147 c 1.01771,-0.52628 1.31762,-1.1447 1.31762,-2.716977 0,-1.64013 -0.56208,-2.20507 -2.36642,-2.37844 -1.19235,-0.11457 -1.38777,-0.0519 -2.11936,0.67969 -1.1773,1.1773 -1.14132,2.680741 0.0937,3.915757 1.00001,1.00001 1.84254,1.13702 3.07446,0.49997 z m 69.32281,-0.0513 c 1.05294,-0.72571 1.2983,-1.19427 1.30723,-2.496366 0.011,-1.604341 -0.57556,-2.331151 -2.03982,-2.527541 -1.60016,-0.21463 -2.58831,0.27652 -3.09274,1.53721 -0.36138,0.903181 -0.36815,1.156941 -0.0511,1.915741 0.74631,1.786146 2.52082,2.505286 3.87644,1.570956 z"
         id="path3693-6"
         inkscape:connector-curvature="0"
         sodipodi:nodetypes="cccsscscccsccscsccccccccccccccccsccccccsccccccccccccsccccccsccsccccsccscccccsccccccccsscccccscccccsccssssscscscccccccccsccccsscccccccccc" />
      <path
         style="opacity:0.71100003;fill:#ffffff;fill-opacity:1;stroke:#000000;stroke-width:0.26458341;stroke-opacity:1"
         d="m 152.8737,122.89465 c -2.88216,-1.41438 -2.91539,-3.9422 -0.13921,-10.58831 5.23953,-10.62137 7.62089,-21.425945 13.55196,-31.940775 0.38681,-0.62442 0.67772,-1.27742 0.6465,-1.451115 -0.0312,-0.173705 -0.6642,-0.755139 -1.40661,-1.292092 -1.72555,-1.247996 -25.04512,-25.921376 -26.65118,-28.198414 -0.66492,-0.942709 -1.26907,-2.048415 -1.34255,-2.457132 -0.21289,-1.184155 0.52541,-3.159248 1.45217,-3.884808 0.96979,-0.759253 3.02952,-0.99881 4.87141,-0.566587 1.89885,0.445593 34.20814,14.263499 35.68409,15.261237 0.76317,0.515899 1.5549,0.907916 1.75939,0.871151 0.2045,-0.03677 0.76294,-0.608255 1.24098,-1.269975 8.60447,-8.700476 16.30261,-15.568473 25.67987,-24.466806 2.68225,-2.549222 3.10876,-2.855891 4.68991,-3.37213 1.53669,-0.501722 1.87064,-0.528151 2.86644,-0.226801 1.61555,0.488897 2.43596,1.388245 2.72304,2.985054 0.13,0.723077 0.15027,1.668528 0.0451,2.101003 -0.10522,0.432472 -3.14747,7.6083 -6.76057,15.946282 -3.63868,5.894387 -5.34417,15.364278 -9.35626,21.020625 -0.9045,1.234368 -0.71576,1.850339 0.80158,2.61596 6.3683,5.399452 12.42878,12.753377 17.72021,18.485029 l 10.391,11.255234 0.2621,1.48047 c 0.14436,0.81422 0.23958,1.75244 0.21156,2.08492 -0.0593,0.70318 -1.97527,2.58243 -2.78057,2.72722 -14.90825,-4.43219 -22.47012,-6.58619 -40.00421,-16.146148 L 187.438,92.9403 l -1.11699,1.560596 c -1.67777,2.344062 -27.68461,27.221614 -29.31653,28.043524 -1.90046,0.95716 -2.74806,1.02902 -4.13113,0.3503 z m 6.21001,-5.41421 c 0.60898,-0.62286 0.65324,-0.83816 0.42891,-2.08591 -0.22185,-1.23399 -0.3545,-1.45132 -1.17255,-1.92149 -1.5707,-0.9027 -3.40307,-0.27139 -3.90171,1.34426 -0.45487,1.47376 -0.0763,2.54019 1.16818,3.29064 0.91215,0.55007 1.24823,0.61311 1.9501,0.36581 0.46641,-0.16432 1.1536,-0.61134 1.52707,-0.99331 z m 68.22697,-12.26621 c 0.60897,-0.62286 0.65323,-0.83816 0.4289,-2.0859 -0.22185,-1.234 -0.3545,-1.45132 -1.17256,-1.9215 -1.33689,-0.76833 -2.81995,-0.45885 -3.60178,0.75163 -1.05737,1.63712 -0.71592,2.9855 1.00675,3.97554 1.1467,0.65904 2.21598,0.42851 3.33869,-0.71977 z m -63.94622,6.27304 c 0.58215,-0.89574 0.50199,-2.76997 -0.15431,-3.60808 -0.24992,-0.31916 -0.92258,-0.6683 -1.49479,-0.77585 -0.92153,-0.17321 -1.16094,-0.12284 -2.09565,0.44088 -1.54251,0.93028 -1.80551,2.5504 -0.65672,4.04555 0.69835,0.90891 1.29357,1.09358 2.72626,0.84582 0.93349,-0.16173 1.29784,-0.36766 1.67521,-0.94832 z m 57.60397,-10.48545 c 0.60478,-0.77332 0.6818,-1.090861 0.50422,-2.078615 -0.5168,-2.874523 -4.35466,-3.045385 -5.11981,-0.227934 -0.7775,2.862909 2.7873,4.644369 4.61559,2.306549 z m -53.7398,4.73351 c 1.23053,-1.42407 1.13166,-3.25576 -0.22672,-4.20014 -1.2249,-0.85157 -2.1107,-0.85962 -3.19477,-0.029 -1.61781,1.23952 -1.5707,3.29683 0.10212,4.45982 0.60874,0.4232 1.06484,0.51073 1.88905,0.36255 0.59761,-0.10744 1.24126,-0.37435 1.43032,-0.59318 z m 47.54314,-8.98356 c 1.19891,-1.724498 0.74862,-3.156856 -1.27244,-4.047577 -1.18756,-0.523382 -1.97851,-0.271836 -2.83997,0.903159 -0.70946,0.967667 -0.78963,1.836919 -0.25212,2.733489 1.13123,1.886907 3.2028,2.081953 4.36453,0.410929 z m -43.01302,1.902116 c 0.37772,-0.571811 0.64327,-1.281544 0.59011,-1.577214 -0.16449,-0.914913 -1.04893,-1.822108 -2.11699,-2.17145 -0.98769,-0.323048 -1.04777,-0.313493 -1.80264,0.286901 -0.85059,0.676508 -1.44445,1.953714 -1.29498,2.785135 0.11382,0.633047 1.5538,1.880795 2.36229,2.046942 0.85999,0.17674 1.49395,-0.207323 2.26221,-1.370287 z m 36.566,-6.014117 c 0.98076,-1.180114 1.13779,-2.246879 0.4605,-3.128385 -0.66755,-0.868829 -1.94926,-1.582667 -2.6239,-1.461376 -0.27425,0.0493 -0.80577,0.325636 -1.18116,0.614054 -1.93481,1.486589 -1.40338,4.132543 0.94161,4.688057 1.25177,0.296551 1.66673,0.173542 2.40298,-0.712355 z m -20.15268,-12.63591 c 2.4132,-2.217043 2.71327,-5.54038 0.69826,-7.733665 -0.54264,-0.590652 -1.54264,-1.341835 -2.22222,-1.669302 -2.2592,-1.088599 -5.30044,-0.0075 -6.75245,2.40032 -0.84671,1.404069 -1.00032,2.173135 -0.73209,3.665113 0.22545,1.254016 1.46922,3.130036 2.50112,3.772548 0.89177,0.555255 3.1621,0.935646 4.37196,0.732509 0.73921,-0.123754 1.38265,-0.475929 2.13542,-1.167523 z M 164.4338,62.918149 c 1.77225,-1.145136 1.80656,-3.165466 0.0742,-4.369827 -1.44291,-1.00314 -2.48035,-0.802733 -3.43769,0.664073 -0.41259,0.632141 -0.6613,1.357954 -0.59386,1.73306 0.18403,1.023619 1.13651,2.056393 2.10863,2.286437 1.10766,0.262107 0.90398,0.296673 1.84868,-0.313773 z m 37.72936,-7.432472 c 0.69721,-1.21896 0.63123,-2.162128 -0.21742,-3.107652 -0.84834,-0.945164 -1.49304,-1.206031 -2.52297,-1.020865 -1.43246,0.257536 -2.43982,1.693993 -2.19457,3.129378 0.41579,2.433606 3.73064,3.104728 4.93496,0.999139 z m -43.66962,2.929671 c 1.49918,-1.141134 1.47926,-2.902878 -0.0465,-4.11761 -0.79546,-0.633297 -1.15576,-0.742455 -1.96838,-0.596358 -1.93872,0.348553 -2.94863,2.543582 -1.91282,4.157522 0.73935,1.152021 2.76776,1.439383 3.92773,0.556446 z m 47.88226,-9.222254 c 0.79245,-1.139845 0.79636,-1.810865 0.0164,-2.82593 -1.00613,-1.30949 -2.89266,-1.570643 -3.91427,-0.541867 -0.26191,0.263757 -0.60118,0.939737 -0.75393,1.502181 -0.23244,0.855918 -0.20332,1.138545 0.17863,1.73367 1.15541,1.800306 3.26988,1.862679 4.47312,0.131946 z m -53.88806,4.835226 c 1.35951,-1.044566 1.12806,-3.550146 -0.4031,-4.364175 -1.25012,-0.664601 -2.68362,-0.260162 -3.56345,1.00536 -1.10394,1.587908 -0.65047,3.014404 1.18425,3.725322 1.09921,0.425927 1.8858,0.322307 2.7823,-0.366507 z m 57.74891,-10.529884 c 1.43553,-1.27286 1.2862,-2.8386 -0.3813,-3.997883 -1.18945,-0.826937 -2.44239,-0.61455 -3.18696,0.540253 -1.19601,1.854902 -1.01652,2.786625 0.73025,3.790515 1.13176,0.65045 1.82012,0.569712 2.83802,-0.332847 z m -63.82034,6.498298 c 0.90853,-0.698057 1.09428,-1.359787 0.81607,-2.907254 -0.29022,-1.614249 -0.9434,-2.070815 -2.74994,-1.922174 -1.19381,0.09822 -1.37506,0.194482 -1.96565,1.043982 -0.9504,1.367043 -0.64896,2.840393 0.78511,3.837386 1.16118,0.80728 2.01466,0.793044 3.11441,-0.05194 z m 68.21983,-12.317047 c 0.90791,-0.900574 1.06649,-1.405157 0.84488,-2.688286 -0.27306,-1.580971 -0.97898,-2.192521 -2.45488,-2.126714 -1.61289,0.0719 -2.49854,0.730154 -2.77193,2.060208 -0.19586,0.952875 -0.15762,1.203829 0.28869,1.894553 1.05059,1.625903 2.92435,2.019698 4.09325,0.860237 z"
         id="path3693-6-9"
         inkscape:connector-curvature="0"
         sodipodi:nodetypes="cccsscscccsccscsccccccccccccccccsccccccsccccccccccccsccccccsccsccccsccscccccsccccccccsscccccscccccsccssssscscscccccccccsccccsscccccccccc" />
      <path
         style="fill:#ffffff;fill-opacity:1;stroke:#000000;stroke-width:0.26458341;stroke-opacity:1"
         d="m 161.91715,128.1887 c -3.08931,-0.87376 -3.57599,-3.35451 -2.03856,-10.39116 3.24678,-11.38967 3.64896,-22.446246 7.59517,-33.855307 0.26838,-0.683736 0.43728,-1.378364 0.37537,-1.54363 -0.0619,-0.165276 -0.78902,-0.623573 -1.61579,-1.018462 -1.92163,-0.917801 -29.29327,-21.001904 -31.28217,-22.953477 -0.82341,-0.807965 -1.61632,-1.78719 -1.76201,-2.176066 -0.4221,-1.126667 -0.0505,-3.202243 0.73086,-4.082449 0.81767,-0.921079 2.80088,-1.52666 4.69045,-1.43226 1.948,0.09732 36.2136,7.887943 37.84474,8.604384 0.84342,0.370447 1.69268,0.613899 1.88724,0.541007 0.19457,-0.0729 0.64129,-0.735387 0.99272,-1.472202 6.90199,-10.104342 13.2415,-18.243228 20.86818,-28.680997 2.18081,-2.989492 2.54531,-3.367774 4.00804,-4.159587 1.42159,-0.769548 1.74537,-0.855523 2.7791,-0.737915 1.67708,0.190802 2.64567,0.928184 3.21487,2.44747 0.25774,0.687972 0.44748,1.61441 0.42169,2.05874 -0.0258,0.444338 -1.72987,8.049868 -3.78675,16.90118 -2.52091,6.452043 -2.49791,16.074257 -5.42891,22.359189 -0.66811,1.376744 -0.37181,1.948802 1.25836,2.429464 7.23447,4.167939 14.51715,10.313857 20.75193,15.001993 l 12.24344,9.206047 0.52372,1.409326 c 0.28825,0.775055 0.55042,1.680919 0.58257,2.013025 0.0679,0.702396 -1.47936,2.895187 -2.24557,3.182257 -15.46185,-1.68266 -23.28762,-2.443559 -42.25354,-8.699023 l -1.73253,-0.626472 -0.81855,1.735827 c -1.22951,2.607271 -22.34558,31.751058 -23.80335,32.852688 -1.69766,1.28291 -2.51857,1.50583 -4.00105,1.08654 z m 5.13667,-6.44147 c 0.48721,-0.7221 0.49209,-0.94185 0.0473,-2.12903 -0.43986,-1.17409 -0.60938,-1.36406 -1.49857,-1.67967 -1.70729,-0.60593 -3.39648,0.3442 -3.59685,2.02314 -0.18279,1.5315 0.38115,2.5126 1.74017,3.02734 0.99611,0.37731 1.33805,0.37897 1.98409,0.01 0.42932,-0.24541 1.02505,-0.80858 1.32385,-1.25141 z m 64.91467,-24.320069 c 0.4872,-0.722101 0.49207,-0.941849 0.0473,-2.129013 -0.43986,-1.174092 -0.60938,-1.364055 -1.49859,-1.67967 -1.45314,-0.515737 -2.8565,0.05506 -3.40822,1.386274 -0.74616,1.800401 -0.1681,3.065534 1.70437,3.730091 1.24642,0.442382 2.25691,0.02356 3.15514,-1.307682 z m -61.77987,17.655529 c 0.41181,-0.98573 -0.004,-2.81509 -0.7998,-3.5217 -0.30318,-0.26909 -1.02761,-0.49174 -1.60983,-0.49478 -0.93765,-0.005 -1.16412,0.0877 -1.98239,0.81008 -1.35036,1.19219 -1.31811,2.8332 0.0805,4.09772 0.85023,0.76871 1.46894,0.84348 2.83384,0.34244 0.88926,-0.32675 1.21071,-0.59477 1.47766,-1.23376 z m 54.78421,-20.660404 c 0.45606,-0.869362 0.4748,-1.195572 0.12271,-2.135374 -1.02465,-2.734969 -4.8308,-2.213787 -5.0775,0.695271 -0.25069,2.955994 3.57609,4.068265 4.95479,1.440103 z m -52.0159,14.307994 c 0.95477,-1.62191 0.52854,-3.40606 -0.97736,-4.09112 -1.35792,-0.61774 -2.23077,-0.46657 -3.14803,0.54523 -1.3689,1.50992 -0.95307,3.52532 0.90142,4.36897 0.67485,0.30699 1.13925,0.31118 1.92345,0.0174 0.5686,-0.21302 1.15384,-0.59119 1.30053,-0.84042 z m 45.1567,-17.376045 c 0.8697,-1.911776 0.16949,-3.239975 -1.97868,-3.753238 -1.26225,-0.301592 -1.99516,0.08791 -2.63159,1.39852 -0.52414,1.079349 -0.44689,1.948867 0.2429,2.734325 1.45172,1.65306 3.52464,1.472891 4.36737,-0.379607 z m -41.97204,9.596155 c 0.26889,-0.63035 0.40265,-1.376235 0.29726,-1.657549 -0.32613,-0.870496 -1.35912,-1.604099 -2.47255,-1.75594 -1.02965,-0.14041 -1.08704,-0.120221 -1.72181,0.605984 -0.71526,0.81827 -1.07008,2.181365 -0.77372,2.972425 0.22566,0.60231 1.86631,1.57115 2.6915,1.5894 0.87775,0.0194 1.43242,-0.47227 1.97933,-1.75429 z m 34.89135,-12.483437 c 0.75287,-1.337066 0.71575,-2.414689 -0.10884,-3.160221 -0.81273,-0.734815 -2.2018,-1.206857 -2.84369,-0.966375 -0.26094,0.09775 -0.73419,0.465053 -1.05167,0.816202 -1.63637,1.809901 -0.63838,4.317392 1.76825,4.442722 1.28468,0.06692 1.6708,-0.128617 2.23597,-1.132339 z m -22.09437,-8.811115 c 1.97579,-2.614395 1.67412,-5.937589 -0.70203,-7.733324 -0.63989,-0.483591 -1.75854,-1.042965 -2.48589,-1.243057 -2.41797,-0.665156 -5.2156,0.94456 -6.21157,3.574003 -0.58077,1.533306 -0.59377,2.317456 -0.0619,3.737001 0.447,1.193137 2.00747,2.815278 3.13798,3.262018 0.977,0.386067 3.27873,0.352532 4.43243,-0.06459 0.70497,-0.2545 1.2747,-0.71651 1.89102,-1.532053 z M 162.51775,67.111233 c 1.53777,-1.444806 1.20868,-3.43845 -0.71181,-4.312101 -1.59961,-0.72769 -2.58419,-0.34422 -3.26253,1.270669 -0.29235,0.695962 -0.40667,1.454641 -0.27295,1.811537 0.36487,0.973923 1.48735,1.818844 2.48497,1.870559 1.13673,0.05891 0.94257,0.129497 1.76227,-0.640686 z M 198.2988,53.023567 c 0.46696,-1.324357 0.23266,-2.240341 -0.772,-3.018078 -1.0043,-0.777437 -1.68537,-0.918277 -2.66529,-0.551151 -1.36292,0.510613 -2.09592,2.104633 -1.59687,3.472634 0.8461,2.319361 4.22758,2.384239 5.03416,0.0966 z m -42.43341,10.724926 c 1.26986,-1.391828 0.93386,-3.121349 -0.78525,-4.04231 -0.89627,-0.480139 -1.27031,-0.522814 -2.04348,-0.233149 -1.8446,0.691072 -2.44387,3.03179 -1.13504,4.433459 0.93422,1.000505 2.98126,0.918899 3.9638,-0.158006 z m 45.44743,-17.671771 c 0.57486,-1.263634 0.45819,-1.924446 -0.49139,-2.782929 -1.22495,-1.107503 -3.12771,-1.025596 -3.94794,0.16993 -0.21028,0.306507 -0.42263,1.032427 -0.47189,1.61316 -0.0749,0.883747 0.004,1.156549 0.48708,1.673403 1.45996,1.563525 3.55125,1.245134 4.42409,-0.673554 z m -52.14347,14.434689 c 1.1498,-1.271744 0.47212,-3.695019 -1.18034,-4.220822 -1.34915,-0.429278 -2.68671,0.226036 -3.32495,1.628995 -0.80081,1.760353 -0.0985,3.082215 1.83405,3.452066 1.15783,0.221588 1.91302,-0.02162 2.67124,-0.860239 z m 54.91881,-20.730152 c 1.18359,-1.50998 0.75549,-3.023443 -1.0931,-3.8644 -1.31863,-0.599871 -2.51305,-0.165914 -3.03812,1.103834 -0.84343,2.039541 -0.49952,2.923879 1.39914,3.597734 1.23018,0.436615 1.89284,0.233563 2.7321,-0.837132 z M 142.47258,57.63578 c 0.76839,-0.849875 0.83227,-1.534207 0.28067,-3.006548 -0.57542,-1.535881 -1.29997,-1.867715 -3.05044,-1.397043 -1.15676,0.311026 -1.31778,0.438275 -1.7462,1.380031 -0.68943,1.515504 -0.12828,2.910762 1.46153,3.633991 1.28728,0.585611 2.12433,0.418325 3.05444,-0.610431 z m 64.89851,-24.368792 c 0.73141,-1.048988 0.79679,-1.573847 0.34834,-2.796313 -0.55256,-1.506224 -1.35683,-1.98105 -2.79691,-1.651247 -1.57376,0.360399 -2.32679,1.16701 -2.35686,2.524536 -0.0215,0.972559 0.0611,1.212564 0.62425,1.811902 1.32551,1.410785 3.23953,1.461657 4.18119,0.111119 z"
         id="path3693-6-9-1"
         inkscape:connector-curvature="0"
         sodipodi:nodetypes="cccsscscccsccscsccccccccccccccccsccccccsccccccccccccsccccccsccsccccsccscccccsccccccccsscccccscccccsccssssscscscccccccccsccccsscccccccccc" />
    </g>
  </g>
</svg>
