<?xml version="1.0" encoding="UTF-8" standalone="no"?>
<!DOCTYPE svg PUBLIC "-//W3C//DTD SVG 1.1//EN"
 "http://www.w3.org/Graphics/SVG/1.1/DTD/svg11.dtd">
<!-- Generated by graphviz version 2.38.0 (20140413.2041)
 -->
<!-- Title: G Pages: 1 -->
<svg width="148pt" height="260pt"
 viewBox="0.00 0.00 147.79 260.00" xmlns="http://www.w3.org/2000/svg" xmlns:xlink="http://www.w3.org/1999/xlink">
<g id="graph0" class="graph" transform="scale(1 1) rotate(0) translate(4 256)">
<title>G</title>
<polygon fill="white" stroke="none" points="-4,4 -4,-256 143.791,-256 143.791,4 -4,4"/>
<!-- Lesen -->
<g id="node1" class="node"><title>Lesen</title>
<ellipse fill="none" stroke="black" cx="91.9954" cy="-234" rx="32.4942" ry="18"/>
<text text-anchor="middle" x="91.9954" y="-230.3" font-family="Times New Roman,serif" font-size="14.00">Lesen</text>
</g>
<!-- Dekodieren -->
<g id="node2" class="node"><title>Dekodieren</title>
<ellipse fill="none" stroke="black" cx="51.9954" cy="-162" rx="51.9908" ry="18"/>
<text text-anchor="middle" x="51.9954" y="-158.3" font-family="Times New Roman,serif" font-size="14.00">Dekodieren</text>
</g>
<!-- Lesen&#45;&gt;Dekodieren -->
<g id="edge1" class="edge"><title>Lesen&#45;&gt;Dekodieren</title>
<path fill="none" stroke="black" d="M82.5159,-216.411C77.803,-208.163 72.0005,-198.009 66.7248,-188.777"/>
<polygon fill="black" stroke="black" points="69.6849,-186.902 61.6846,-179.956 63.6072,-190.375 69.6849,-186.902"/>
</g>
<!-- Ausführen -->
<g id="node3" class="node"><title>Ausführen</title>
<ellipse fill="none" stroke="black" cx="53.9954" cy="-90" rx="48.1917" ry="18"/>
<text text-anchor="middle" x="53.9954" y="-86.3" font-family="Times New Roman,serif" font-size="14.00">Ausführen</text>
</g>
<!-- Dekodieren&#45;&gt;Ausführen -->
<g id="edge2" class="edge"><title>Dekodieren&#45;&gt;Ausführen</title>
<path fill="none" stroke="black" d="M52.4898,-143.697C52.7102,-135.983 52.975,-126.712 53.2207,-118.112"/>
<polygon fill="black" stroke="black" points="56.7196,-118.2 53.5067,-108.104 49.7224,-118 56.7196,-118.2"/>
</g>
<!-- Schreiben -->
<g id="node4" class="node"><title>Schreiben</title>
<ellipse fill="none" stroke="black" cx="92.9954" cy="-18" rx="46.5926" ry="18"/>
<text text-anchor="middle" x="92.9954" y="-14.3" font-family="Times New Roman,serif" font-size="14.00">Schreiben</text>
</g>
<!-- Ausführen&#45;&gt;Schreiben -->
<g id="edge3" class="edge"><title>Ausführen&#45;&gt;Schreiben</title>
<path fill="none" stroke="black" d="M63.4362,-72.055C68.035,-63.8006 73.6618,-53.7014 78.7672,-44.5378"/>
<polygon fill="black" stroke="black" points="81.8319,-46.2282 83.6415,-35.789 75.7169,-42.8212 81.8319,-46.2282"/>
</g>
<!-- Schreiben&#45;&gt;Lesen -->
<g id="edge4" class="edge"><title>Schreiben&#45;&gt;Lesen</title>
<path fill="none" stroke="black" d="M100.163,-35.8425C104.157,-46.0928 108.764,-59.5658 110.995,-72 113.937,-88.388 116.02,-164.154 112.995,-180 111.261,-189.084 107.996,-198.597 104.547,-207.016"/>
<polygon fill="black" stroke="black" points="101.285,-205.741 100.496,-216.306 107.702,-208.539 101.285,-205.741"/>
</g>
</g>
</svg>
